<svg xmlns="http://www.w3.org/2000/svg" viewBox="0 0 512 512">
  <defs>
    <linearGradient id="bg" x1="0" y1="0" x2="0" y2="1">
      <stop offset="0" stop-color="#93283a"/>
      <stop offset="1" stop-color="#5a1420"/>
    </linearGradient>
    <linearGradient id="gold" gradientUnits="userSpaceOnUse" x1="0" y1="80" x2="420" y2="500">
      <stop offset="0" stop-color="#fbe3a1"/>
      <stop offset="1" stop-color="#d9a441"/>
    </linearGradient>
  </defs>
  <rect width="512" height="512" rx="112" fill="url(#bg)"/>
  <circle cx="256" cy="256" r="218" fill="none" stroke="#f3d488" stroke-opacity=".18" stroke-width="6"/>

  <!-- Balanța -->
  <g stroke="url(#gold)" stroke-linecap="round" stroke-linejoin="round" fill="none">
    <path d="M60 118 H200" stroke-width="12"/>
    <path d="M60 118 L36 196 M60 118 L84 196" stroke-width="4"/>
    <path d="M200 118 L176 196 M200 118 L224 196" stroke-width="4"/>
  </g>
  <circle cx="130" cy="112" r="10" fill="url(#gold)"/>
  <path d="M28 196 H92 A32 22 0 0 1 28 196 Z" fill="url(#gold)"/>
  <path d="M168 196 H232 A32 22 0 0 1 168 196 Z" fill="url(#gold)"/>

  <!-- Brațul ridicat -->
  <path d="M226 222 C200 200 160 160 136 126" stroke="#f7e3bd" stroke-width="20" stroke-linecap="round" fill="none"/>
  <circle cx="134" cy="122" r="13" fill="#f7e3bd"/>

  <!-- Sabia -->
  <path d="M352 300 V474" stroke="#eef1f5" stroke-width="12" stroke-linecap="round"/>
  <path d="M352 300 V474" stroke="#b9c2cf" stroke-width="3"/>
  <path d="M326 300 H378" stroke="url(#gold)" stroke-width="12" stroke-linecap="round"/>
  <path d="M352 300 V270" stroke="#e3b252" stroke-width="10" stroke-linecap="round"/>
  <circle cx="352" cy="264" r="9" fill="url(#gold)"/>

  <!-- Roba -->
  <path d="M216 214 C230 204 282 204 296 214 L318 300 C330 360 344 420 352 470 H160 C168 420 182 360 194 300 Z" fill="url(#gold)"/>
  <path d="M232 250 C226 330 212 400 204 466 M256 236 V468 M280 250 C286 330 300 400 308 466" stroke="#b9822c" stroke-width="5" stroke-linecap="round" fill="none" opacity=".7"/>
  <path d="M214 262 C236 274 276 274 298 262" stroke="#b9822c" stroke-width="6" stroke-linecap="round" fill="none"/>

  <!-- Brațul coborât, ține sabia -->
  <path d="M292 222 C312 246 330 270 344 290" stroke="#f7e3bd" stroke-width="20" stroke-linecap="round" fill="none"/>
  <circle cx="350" cy="292" r="13" fill="#f7e3bd"/>

  <!-- Cap -->
  <rect x="244" y="182" width="24" height="28" rx="8" fill="#f7e3bd"/>
  <circle cx="256" cy="150" r="40" fill="#f7e3bd"/>
  <!-- Păr -->
  <path d="M216 150 C214 108 240 98 256 98 C276 98 300 110 296 152 C292 132 280 118 256 118 C236 118 222 130 216 150 Z" fill="#6b3a1e"/>
  <circle cx="256" cy="94" r="16" fill="#6b3a1e"/>
  <path d="M232 112 Q256 100 280 112" stroke="url(#gold)" stroke-width="6" fill="none" stroke-linecap="round"/>
  <!-- Ochi deschiși -->
  <ellipse cx="241" cy="152" rx="7" ry="8" fill="#fff"/>
  <ellipse cx="271" cy="152" rx="7" ry="8" fill="#fff"/>
  <circle cx="242" cy="153" r="4.5" fill="#2a1a12"/>
  <circle cx="272" cy="153" r="4.5" fill="#2a1a12"/>
  <path d="M232 139 Q241 134 250 139 M262 139 Q271 134 280 139" stroke="#6b3a1e" stroke-width="3.5" fill="none" stroke-linecap="round"/>
  <path d="M248 174 Q256 179 264 174" stroke="#b8545e" stroke-width="3.5" fill="none" stroke-linecap="round"/>
</svg>
